<svg id="Group_14" data-name="Group 14" xmlns="http://www.w3.org/2000/svg" viewBox="974 143.7 163.901 171.8">
  <defs>
    <style>
      .cls-1 {
        fill: #fff;
      }
    </style>
  </defs>
  <g id="Group_13" data-name="Group 13" transform="translate(974 143.7)">
    <path id="Path_2" data-name="Path 2" class="cls-1" d="M12.638,110.205A12.477,12.477,0,0,0,0,122.844v.395a12.477,12.477,0,0,0,12.638,12.638h4.739v2.765A6.238,6.238,0,0,0,23.7,144.96h15.8a6.238,6.238,0,0,0,6.319-6.319v-2.765h62.4v1.975a6.238,6.238,0,0,0,6.319,6.319h15.8a6.238,6.238,0,0,0,6.319-6.319v-1.975h1.58a12.477,12.477,0,0,0,12.638-12.638v-.395a12.477,12.477,0,0,0-12.638-12.638h-7.109L143.759,41.09h10.663a9.479,9.479,0,1,0,0-18.957H120.458a9.479,9.479,0,0,0,0,18.957h7.109l-12.638,69.115H84.123l3.949-23.3a5.484,5.484,0,0,0-.79-4.344L75.434,62.417a14.461,14.461,0,0,0,1.58-7.109v-15.8l10.663,5.924a6.714,6.714,0,0,0,6.319,0l11.058-6.714a6.011,6.011,0,0,0,1.975-8.689,6.076,6.076,0,0,0-8.689-1.975l-7.9,4.739-13.428-7.5V24.9c0-8.689-6.319-15.8-14.613-15.8-7.5,0-13.428,5.924-14.218,13.823L31.6,32.007c-2.37,1.58-3.949,4.344-3.16,7.109L32.78,56.493A6.4,6.4,0,0,0,39.1,61.232h1.58a6.24,6.24,0,0,0,4.739-7.5L42.259,41.09l6.319-3.554V55.7a23.094,23.094,0,0,0,1.58,7.5L37.52,80.98,15.4,69.131A6.728,6.728,0,0,0,6.714,71.5a6.728,6.728,0,0,0,2.37,8.689L35.94,94.8a7.44,7.44,0,0,0,3.16.79,5.756,5.756,0,0,0,5.134-2.765l15.4-21.722a7.7,7.7,0,0,0,3.16.395,8.7,8.7,0,0,0,3.16-.395L75.434,87.3l-3.949,22.907Zm0,0" transform="translate(0 26.84)"/>
    <path id="Path_3" data-name="Path 3" class="cls-1" d="M45.565,16.983a16.983,16.983,0,0,1-33.965,0,16.983,16.983,0,0,1,33.965,0Zm0,0" transform="translate(34.213)"/>
  </g>
</svg>
