<svg xmlns="http://www.w3.org/2000/svg" viewBox="974 375.56 170.711 133.353">
  <defs>
    <style>
      .cls-1 {
        fill: #fff;
      }
    </style>
  </defs>
  <g id="Group_17" data-name="Group 17" transform="translate(974 375.56)">
    <path id="Path_4" data-name="Path 4" class="cls-1" d="M132.566,60.183a6.783,6.783,0,1,0-6.783,6.783,6.8,6.8,0,0,0,6.783-6.783Zm-8.848,0a2.064,2.064,0,1,1,2.064,2.064,2.077,2.077,0,0,1-2.064-2.064Zm0,0" transform="translate(-60.508 -27.152)"/>
    <path id="Path_5" data-name="Path 5" class="cls-1" d="M168.4,100.076H149.032V96.389A15.355,15.355,0,0,0,133.7,81H113.446A37.531,37.531,0,0,0,89.508,70.24l-14.254-.934.492-14.746a23.964,23.964,0,1,0-21.185-.1l-.393,8.946a24.75,24.75,0,0,0-24.773-7.324V46.155H34.9A2.36,2.36,0,0,0,37.258,43.8V37.5A2.36,2.36,0,0,0,34.9,35.145,2.329,2.329,0,0,0,32.539,37.5v3.932H29.394V5.948a5.948,5.948,0,1,0-11.9,0V63.26a24.735,24.735,0,0,0,0,33.522v3.342H2.359A2.329,2.329,0,0,0,0,102.484v6.881a2.36,2.36,0,0,0,2.359,2.359H17.548v19.268a2.36,2.36,0,0,0,2.359,2.359h7.127a2.329,2.329,0,0,0,2.359-2.359V111.725h95.849v.688a11.9,11.9,0,0,0,11.9,11.9,11.662,11.662,0,0,0,8.405-3.49,11.828,11.828,0,0,0,3.49-8.405v-.688h3.244v19.268a2.36,2.36,0,0,0,2.359,2.359h7.127a2.36,2.36,0,0,0,2.359-2.359V111.725h4.227a2.329,2.329,0,0,0,2.359-2.359v-6.881a2.33,2.33,0,0,0-2.31-2.409ZM46.007,33.031A19.268,19.268,0,1,1,65.275,52.3,19.3,19.3,0,0,1,46.007,33.031Zm16.417,67.045H50.284a24.175,24.175,0,0,0,6.242-6.587,22.93,22.93,0,0,0,5.9,6.587ZM37.111,60.016A20.056,20.056,0,0,1,53.774,71.223l-.393,9a22.607,22.607,0,0,0,.786,7.766,19.9,19.9,0,0,1-19.76,12.043,19.291,19.291,0,0,1-5.014-.983v-38a18.61,18.61,0,0,1,7.717-1.032ZM15.778,78.645a19.749,19.749,0,0,1,1.77-6.98V88.328a19.8,19.8,0,0,1-1.77-9.683ZM4.719,106.957v-2.163H17.548v2.163Zm19.956,21.627H22.266V5.948A1.176,1.176,0,0,1,23.5,4.768a1.207,1.207,0,0,1,1.229,1.18V128.585Zm4.719-21.627v-2.163h95.849v2.163Zm114.92,5.407a7.176,7.176,0,0,1-2.114,5.112,7.093,7.093,0,0,1-5.112,2.114,7.185,7.185,0,0,1-7.176-7.176v-9.88a2.36,2.36,0,0,0-2.359-2.359H74.959A18.381,18.381,0,0,1,58.1,80.562v-.049L59.23,56.28a24.955,24.955,0,0,0,6.095.786,24.148,24.148,0,0,0,5.7-.688l-.492,15.139a2.31,2.31,0,0,0,2.212,2.409l16.515,1.081a33.692,33.692,0,0,1,11.748,3,32.435,32.435,0,0,1,9.831,7.029,2.5,2.5,0,0,0,1.72.737H133.7a10.722,10.722,0,0,1,7.52,3.1,10.516,10.516,0,0,1,3.1,7.52Zm15.09,16.221H157V111.676H159.4Zm6.636-21.627H149.082v-2.163h16.958Zm0,0"/>
  </g>
</svg>
