<svg xmlns="http://www.w3.org/2000/svg" xmlns:xlink="http://www.w3.org/1999/xlink" viewBox="1255.706 366.287 158.753 143.002">
  <defs>
    <style>
      .cls-1 {
        fill: #fff;
      }

      .cls-2 {
        clip-path: url(#clip-path);
      }
    </style>
    <clipPath id="clip-path">
      <rect id="Rectangle_8" data-name="Rectangle 8" class="cls-1" width="158.753" height="143.002"/>
    </clipPath>
  </defs>
  <g id="Group_18" data-name="Group 18" transform="translate(1255.706 366.187)">
    <g id="Group_11" data-name="Group 11" transform="translate(0 0.1)">
      <g id="Group_10" data-name="Group 10" class="cls-2">
        <path id="Path_8" data-name="Path 8" class="cls-1" d="M148.825,9.674a33.092,33.092,0,1,0-35.761,54.117,19.347,19.347,0,0,1-4.01,4.258A64.144,64.144,0,0,0,96.486,80.286,33.719,33.719,0,0,0,71.143,53.124l-3.845-.91a7.821,7.821,0,0,1-.207-.951A45.76,45.76,0,0,0,28.23,16.247a3.31,3.31,0,1,0-.785,6.573A39.109,39.109,0,0,1,60.684,52.752c1.7,7.318,3.39,13.6,5.085,18.645a3.274,3.274,0,0,0,3.142,2.274,3,3,0,0,0,1.034-.165,3.3,3.3,0,0,0,2.108-4.176c-.951-2.853-1.9-6.16-2.894-9.839l.5.124A26.663,26.663,0,0,1,88.3,75.573a26.04,26.04,0,0,1-1.86,23.854c-.124.207-.289.455-.413.661a3.314,3.314,0,0,0,5.54,3.638c.165-.248.331-.537.5-.827a32.115,32.115,0,0,0,3.927-9.3,56.272,56.272,0,0,1,16.992-20.134,29.111,29.111,0,0,0,6.78-7.69,32.411,32.411,0,0,0,5.664.5A31.662,31.662,0,0,0,132,65.61c-2.77,9.922-5.044,18.6-6.863,25.88-4.217,16.95-15.421,38.655-25.343,43.947a6.8,6.8,0,0,1-5.5.827C46.545,114.352,36.912,91.7,35.011,82.973a3.3,3.3,0,0,0-3.555-2.563,33.468,33.468,0,0,1-19.472-14.1A32.725,32.725,0,0,1,7.27,41.838,3.312,3.312,0,0,0,.779,40.515,39.64,39.64,0,0,0,29.14,86.487c1.571,5.457,5.168,13.229,13.188,22.159,11.08,12.361,27.7,23.648,49.4,33.57l.248.124a12.282,12.282,0,0,0,4.052.7,14.408,14.408,0,0,0,6.9-1.9c7.318-3.886,13.519-13.105,17.446-20.175a120.044,120.044,0,0,0,11.2-27.989c2.067-8.227,4.754-18.314,8.02-29.973a33.1,33.1,0,0,0,9.219-53.331ZM125.467,59.532a26.48,26.48,0,1,1,18.728-7.772,26.468,26.468,0,0,1-18.728,7.772Zm0,0" transform="translate(0.006 -0.041)"/>
      </g>
    </g>
    <path id="Path_9" data-name="Path 9" class="cls-1" d="M284.993,61.593a8.653,8.653,0,1,0,12.237,0,8.634,8.634,0,0,0-12.237,0Zm7.607,7.566a2.046,2.046,0,0,1-2.894-2.894,1.963,1.963,0,0,1,1.447-.579,2.141,2.141,0,0,1,1.447.579,2.072,2.072,0,0,1,0,2.894Zm0,0" transform="translate(-165.68 -34.579)"/>
    <path id="Path_10" data-name="Path 10" class="cls-1" d="M286.475,29.157a23.9,23.9,0,1,0,0,33.818,23.9,23.9,0,0,0,0-33.818ZM281.762,58.3a17.281,17.281,0,1,1,0-24.474,17.342,17.342,0,0,1,0,24.474Zm0,0" transform="translate(-144.093 -12.934)"/>
  </g>
</svg>
