<svg xmlns="http://www.w3.org/2000/svg" xmlns:xlink="http://www.w3.org/1999/xlink" viewBox="1226 187.685 227.593 128.006">
  <defs>
    <style>
      .cls-1, .cls-3 {
        fill: #fff;
      }

      .cls-1 {
        stroke: #fff;
      }

      .cls-2 {
        clip-path: url(#clip-path);
      }
    </style>
    <clipPath id="clip-path">
      <rect id="Rectangle_7" data-name="Rectangle 7" class="cls-1" width="116.786" height="128.006"/>
    </clipPath>
  </defs>
  <g id="Group_16" data-name="Group 16" transform="translate(243 -188.315)">
    <g id="Group_15" data-name="Group 15" transform="translate(983 376)">
      <g id="Group_8" data-name="Group 8" transform="translate(0 0)">
        <g id="Group_7" data-name="Group 7" class="cls-2">
          <path id="Path_6" data-name="Path 6" class="cls-3" d="M9.384,6.12a1.912,1.912,0,0,1,.561.051l54.007,9.894A16.288,16.288,0,0,1,77.313,32.078V89.451c.2,6.681,2.091,7.8,3.825,9.894,10.4,12.393,23.561,12.75,26.876,13.719a3.166,3.166,0,0,1,2.193,2.193,3.208,3.208,0,0,1-.663,3.009h0a9.639,9.639,0,0,1-7.242,3.264h-.408l-19.022-.765c-.51,0-1.02-.051-1.581-.051a39.185,39.185,0,0,0-5.967.459l-2.346.357a10.411,10.411,0,0,1-1.734.153,11.361,11.361,0,0,1-9.282-4.743c-2.5-3.519-2.448-7.956-.867-11.934.408-1.071,1.224-4.386,1.224-4.386A35.711,35.711,0,0,0,61.4,78.486L59.26,73.131A70.962,70.962,0,0,1,54.772,38.4L9.537,41.36h-.2a3.344,3.344,0,0,1-2.244-.867,3.236,3.236,0,0,1-1.02-2.4V9.384a3.167,3.167,0,0,1,1.173-2.5A3.446,3.446,0,0,1,9.384,6.12m25.6,14.331a2.772,2.772,0,0,0,.408-5.508l-19.124-3.06c-.153,0-.306-.051-.459-.051a2.772,2.772,0,0,0-.408,5.508L34.526,20.4a1.757,1.757,0,0,0,.459.051m7.395.816a2.754,2.754,0,1,0-2.754-2.754,2.742,2.742,0,0,0,2.754,2.754M9.384,0A9.4,9.4,0,0,0,0,9.384V38.147A9.392,9.392,0,0,0,9.384,47.53H10l38.2-2.5A77.893,77.893,0,0,0,53.6,75.477l2.091,5.3A29.212,29.212,0,0,1,56.4,99.09l-.051.1-.051.1c-.357,1.479-.816,3.111-.969,3.57-2.5,6.375-1.938,12.852,1.581,17.747a17.569,17.569,0,0,0,14.28,7.344,16.081,16.081,0,0,0,2.7-.2l2.346-.357a33.026,33.026,0,0,1,5-.408,11.528,11.528,0,0,1,1.326.051l19.022.765h.612a15.85,15.85,0,0,0,11.832-5.3,9.335,9.335,0,0,0-4.335-15.146,28.628,28.628,0,0,0-2.907-.612c-4.794-.867-13.668-2.448-20.96-11.169-.255-.357-.561-.612-.765-.918-1.02-1.122-1.479-1.632-1.581-5.151V32.078a22.412,22.412,0,0,0-18.41-22.031L11.067.153A9.39,9.39,0,0,0,9.384,0Zm0,0" transform="translate(0)"/>
        </g>
      </g>
    </g>
    <path id="ic_fitness_center_24px" class="cls-3" d="M70.348,41.234l7.141-7.1-4.34-4.271L55.321,47.587,38.268,30.808,29.31,21.994,47.139,4.271,42.8,0,35.657,7.1l-4.34-4.271L20.63,13.453,16.29,9.182l-7.141,7.1,4.34,4.271L2.8,31.176l4.34,4.271L0,42.546l4.34,4.271L22.169,29.093,48.18,54.687,30.351,72.41l4.34,4.271,7.141-7.1,4.34,4.271L56.86,63.228,61.2,67.5l7.141-7.1L64,56.128,74.689,45.5Z" transform="translate(1210.593 435.321) rotate(135)"/>
  </g>
</svg>
